<svg xmlns="http://www.w3.org/2000/svg" viewBox="0 0 15 15.07"><g id="Calque_2" data-name="Calque 2"><g id="Calque_1-2" data-name="Calque 1"><path d="M15,1.78a5.16,5.16,0,0,1-1.77.6A3.73,3.73,0,0,0,14.58.28a5.38,5.38,0,0,1-1.95.92A2.85,2.85,0,0,0,10.38,0C8.68,0,7.31,1.71,7.31,3.8a4.94,4.94,0,0,0,.07.87A8.3,8.3,0,0,1,1,.69,4.63,4.63,0,0,0,.62,2.62,4.12,4.12,0,0,0,2,5.78,2.69,2.69,0,0,1,.6,5.31v0A3.71,3.71,0,0,0,3.06,9.08a2.36,2.36,0,0,1-.8.13,1.85,1.85,0,0,1-.58-.07,3.24,3.24,0,0,0,2.87,2.65A5.47,5.47,0,0,1,.74,13.42,4.44,4.44,0,0,1,0,13.36a7.49,7.49,0,0,0,4.72,1.71c5.66,0,8.75-5.8,8.75-10.82,0-.17,0-.33,0-.49A7.25,7.25,0,0,0,15,1.78Z"></path></g></g></svg>